<svg width="4443" height="1275" xmlns="http://www.w3.org/2000/svg" xmlns:xlink="http://www.w3.org/1999/xlink" xml:space="preserve" overflow="hidden"><defs><clipPath id="clip0"><rect x="-2" y="345" width="4443" height="1275"/></clipPath><clipPath id="clip1"><rect x="27" y="360" width="4401" height="1261"/></clipPath><clipPath id="clip2"><rect x="27" y="360" width="4401" height="1261"/></clipPath><clipPath id="clip3"><rect x="27" y="360" width="4401" height="1261"/></clipPath><clipPath id="clip4"><rect x="27" y="360" width="4401" height="1261"/></clipPath></defs><g clip-path="url(#clip0)" transform="translate(2 -345)"><rect x="0.499836" y="347.5" width="4438" height="1269" stroke="#FFFFFF" stroke-width="4.58333" stroke-miterlimit="8" fill="#FFFFFF"/><g clip-path="url(#clip1)"><g clip-path="url(#clip2)"><g clip-path="url(#clip3)"><g clip-path="url(#clip4)"><path d="M26.5452 0 810.007 0C824.797 0 836.553 11.7557 836.553 26.5452L836.553 940.458C836.553 955.248 824.797 967.004 810.007 967.004L26.5452 967.004C11.7557 967.004 0 955.248 0 940.458L0 26.5452C0 11.7557 11.7557 0 26.5452 0Z" stroke="#000000" stroke-width="15.1687" fill="#FFFFFF" transform="matrix(1.00024 0 0 1 3533.25 493.726)"/><path d="M41.7138 0 163.063 0C194.538 0 219.945 25.4075 219.945 56.8825L219.945 614.331C219.945 641.256 197.951 663.63 170.648 663.63L159.271 663.63" stroke="#5A5A5A" stroke-width="7.58434" fill="none" transform="matrix(1.00024 0 0 1 4032.38 625.2)"/><path d="M0 0 41.7138 10.6181 41.7138-10.6181 0 0" stroke="#5A5A5A" stroke-width="3.79217" stroke-linecap="round" fill="#5A5A5A" transform="matrix(1.00024 0 0 1 4032.38 625.2)"/><path d="M117.557 663.63 159.271 673.869 159.271 653.012 117.557 663.63" stroke="#5A5A5A" stroke-width="3.79217" stroke-linecap="round" fill="#5A5A5A" transform="matrix(1.00024 0 0 1 4032.38 625.2)"/><path d="M26.5452 0 439.892 0C454.681 0 466.437 11.7557 466.437 26.5452L466.437 143.724C466.437 158.133 454.681 170.268 439.892 170.268L26.5452 170.268C11.7557 170.268 0 158.133 0 143.724L0 26.5452C0 11.7557 11.7557 0 26.5452 0Z" fill="#FF6E59" transform="matrix(1.00024 0 0 1 3565.83 540.142)"/><text font-family="Arial,Arial_MSFontService,sans-serif" font-weight="700" font-size="13" transform="matrix(3.7931 0 0 3.79217 3622.73 640)">GNSS receiver</text><text font-family="Arial,Arial_MSFontService,sans-serif" font-weight="700" font-size="13" transform="matrix(3.7931 0 0 3.79217 460.49 498)">GNSS </text><text font-family="Arial,Arial_MSFontService,sans-serif" font-weight="700" font-size="13" transform="matrix(3.7931 0 0 3.79217 411.179 559)">Satellites</text><text font-family="Arial,Arial_MSFontService,sans-serif" font-weight="700" font-size="13" transform="matrix(3.7931 0 0 3.79217 389.558 1530)">u</text><text font-family="Arial,Arial_MSFontService,sans-serif" font-weight="700" font-size="13" transform="matrix(3.7931 0 0 3.79217 419.903 1530)">-</text><text font-family="Arial,Arial_MSFontService,sans-serif" font-weight="700" font-size="13" transform="matrix(3.7931 0 0 3.79217 435.076 1530)">blox GNSS reference </text><text font-family="Arial,Arial_MSFontService,sans-serif" font-weight="700" font-size="13" transform="matrix(3.7931 0 0 3.79217 499.559 1590)">base stations</text><text font-family="Arial,Arial_MSFontService,sans-serif" font-weight="700" font-size="13" transform="matrix(3.7931 0 0 3.79217 986.103 1214)">Data from </text><text font-family="Arial,Arial_MSFontService,sans-serif" font-weight="700" font-size="13" transform="matrix(3.7931 0 0 3.79217 887.479 1275)">reference stations</text><text font-family="Arial,Arial_MSFontService,sans-serif" font-weight="700" font-size="13" transform="matrix(3.7931 0 0 3.79217 1416.05 1527)">PointPerfect </text><text font-family="Arial,Arial_MSFontService,sans-serif" font-weight="700" font-size="13" transform="matrix(3.7931 0 0 3.79217 1302.26 1588)">augmentation service</text><text font-family="Arial,Arial_MSFontService,sans-serif" font-weight="700" font-size="13" transform="matrix(3.7931 0 0 3.79217 2226.82 1527)">u</text><text font-family="Arial,Arial_MSFontService,sans-serif" font-weight="700" font-size="13" transform="matrix(3.7931 0 0 3.79217 2257.17 1527)">-</text><text font-family="Arial,Arial_MSFontService,sans-serif" font-weight="700" font-size="13" transform="matrix(3.7931 0 0 3.79217 2272.34 1527)">blox IoT service </text><text font-family="Arial,Arial_MSFontService,sans-serif" font-weight="700" font-size="13" transform="matrix(3.7931 0 0 3.79217 2226.82 1588)">delivery platform</text><text font-family="Arial,Arial_MSFontService,sans-serif" font-weight="700" font-size="13" transform="matrix(3.7931 0 0 3.79217 2171.37 997)">L</text><text font-family="Arial,Arial_MSFontService,sans-serif" font-weight="700" font-size="13" transform="matrix(3.7931 0 0 3.79217 2201.72 997)">-</text><text font-family="Arial,Arial_MSFontService,sans-serif" font-weight="700" font-size="13" transform="matrix(3.7931 0 0 3.79217 2216.89 997)">band satellite</text><text fill="#5A5A5A" font-family="Arial,Arial_MSFontService,sans-serif" font-weight="700" font-size="13" transform="matrix(3.7931 0 0 3.79217 2988.18 1456)">PointPerfect </text><text fill="#5A5A5A" font-family="Arial,Arial_MSFontService,sans-serif" font-weight="700" font-size="13" transform="matrix(3.7931 0 0 3.79217 2912.32 1516)">encrypted streams</text><text font-family="Arial,Arial_MSFontService,sans-serif" font-weight="700" font-size="19" transform="matrix(3.7931 0 0 3.79217 3758.18 443)">XPLR</text><text font-family="Arial,Arial_MSFontService,sans-serif" font-weight="700" font-size="19" transform="matrix(3.7931 0 0 3.79217 3951.62 443)">-</text><text font-family="Arial,Arial_MSFontService,sans-serif" font-weight="700" font-size="19" transform="matrix(3.7931 0 0 3.79217 3974.39 443)">HPG</text><path d="M59.9163 81.5317C54.9864 86.0823 54.9864 93.6666 59.9163 98.2172 64.4669 102.768 72.0512 102.768 76.6018 98.2172 81.1524 93.6666 81.1524 86.0823 76.6018 81.5317 72.0512 76.6018 64.4669 76.6018 59.9163 81.5317ZM68.2591 0C42.4723 0 18.2024 10.2389 0 28.062L15.5479 43.61C29.5789 29.5789 48.1606 21.6154 68.2591 21.6154 87.9784 21.6154 106.56 29.5789 120.97 43.61L136.139 28.062C118.316 10.2389 93.6666 0 68.2591 0Z" fill="#FF6E59" transform="matrix(0 -1 1.00024 0 3602.24 1356.82)"/><path d="M0 17.0648 15.5479 32.6126C29.5789 18.2024 53.0904 18.2024 67.1214 32.6126L82.6693 17.0648C59.9163-5.68825 22.753-5.68825 0 17.0648Z" fill="#FF6E59" transform="matrix(0 -1 1.00024 0 3640.32 1329.98)"/><path d="M24.6491 49.2982C38.301 49.2982 49.2982 38.301 49.2982 24.6491 49.2982 10.9973 38.301 0 24.6491 0 10.9973 0 0 10.9973 0 24.6491 0 38.301 10.9973 49.2982 24.6491 49.2982Z" fill="#E30613" transform="matrix(1.00024 0 0 1 2302.99 1339.19)"/><path d="M12.5142 29.9581C9.85964 29.9581 7.58434 29.1998 6.44669 28.062 4.92982 26.9244 4.17138 25.0283 4.17138 21.9945L4.17138 13.2726 0 13.2726 0 8.34278 4.17138 8.34278 4.17138 0 10.2389 0 10.2389 8.34278 17.4439 8.34278 17.4439 13.2726 10.2389 13.2726 10.2389 21.2362C10.2389 22.753 10.2389 23.5114 10.9973 23.8907 11.3765 24.6491 12.5142 25.0283 14.0311 25.0283 14.4102 25.0283 15.1687 25.0283 15.5479 24.6491 16.3063 24.6491 16.6856 24.6491 17.4439 24.6491L17.4439 29.5789C16.6856 29.5789 15.9271 29.5789 15.1687 29.9581 14.4102 29.9581 13.2726 29.9581 12.5142 29.9581Z" fill="#FFFFFF" transform="matrix(1.00024 0 0 1 2332.12 1350.94)"/><path d="M0 29.1998 0 0 5.68825 0 5.68825 10.6181C7.20512 8.72199 9.48043 7.96356 12.135 7.96356 14.7894 7.96356 16.6856 8.72199 18.2024 9.85964 19.7193 11.3765 20.4777 13.6518 20.4777 16.3063L20.4777 29.1998 14.7894 29.1998 14.7894 17.4439C14.7894 14.4102 13.2726 12.8933 10.2389 12.8933 9.1012 12.8933 7.96356 13.2726 6.82591 14.0311 6.06748 14.7894 5.68825 15.9271 5.68825 17.4439L5.68825 29.1998 0 29.1998Z" fill="#1D1D1B" transform="matrix(1.00024 0 0 1 2356.28 1351.02)"/><path d="M0 5.68825 0 0 6.06748 0 6.06748 5.68825 0 5.68825ZM0.379217 29.1998 0.379217 8.34278 6.06748 8.34278 6.06748 29.1998 0.379217 29.1998Z" fill="#1D1D1B" transform="matrix(1.00024 0 0 1 2380.63 1351.02)"/><path d="M0 21.6154 0 0.379217 5.30904 0.379217C7.20512 1.13765 9.48043 0 12.135 0 14.7894 0 16.6856 0.758434 18.2024 2.2753 19.7193 3.41295 20.4777 5.68825 20.4777 8.34278L20.4777 21.6154 14.7894 21.6154 14.7894 9.48043C14.7894 6.44669 13.2726 4.92982 10.2389 4.92982 9.1012 4.92982 7.96356 5.30904 6.82591 6.06748 6.06748 6.82591 5.68825 7.96356 5.68825 9.48043L5.68825 21.6154 0 21.6154Z" fill="#1D1D1B" transform="matrix(1.00024 0 0 1 2390.91 1358.91)"/><path d="M9.48043 21.6154C6.44669 21.6154 4.17138 20.8569 2.65452 18.9608 0.758434 17.0648 0 14.4102 0 10.6181 0 7.20512 0.758434 4.55061 2.65452 2.65452 4.17138 0.758434 6.44669 0 9.48043 0 10.9973 0 12.135 0.379217 13.2726 0.758434 14.4102 1.51687 15.1687 2.2753 15.9271 3.03374L21.6154 0.379217 21.6154 22.3738C21.6154 25.4075 20.4777 27.3036 18.9608 28.8205 17.0648 30.3374 14.4102 31.0958 11.3765 31.0958 8.34278 31.0958 5.68825 30.7166 3.79217 29.5789 1.89608 28.4413 1.13765 26.5452 0.758434 24.2699L6.44669 24.2699C6.82591 25.7868 8.34278 26.5452 11.3765 26.5452 12.8933 26.5452 14.0311 26.166 14.7894 25.4075 15.5479 24.6491 15.9271 23.8907 15.9271 22.3738L15.9271 18.5817C15.1687 19.3401 14.4102 20.0985 13.2726 20.8569 12.135 21.2362 10.9973 21.6154 9.48043 21.6154ZM10.9973 16.6856C12.5142 16.6856 13.6518 15.9271 14.7894 15.1687 15.5479 14.0311 15.9271 12.5142 15.9271 10.6181 15.9271 9.1012 15.5479 7.58434 14.7894 6.44669 13.6518 5.68825 12.5142 4.92982 10.9973 4.92982 9.1012 4.92982 7.96356 5.68825 7.20512 6.44669 6.44669 7.58434 5.68825 9.1012 5.68825 10.6181 5.68825 12.5142 6.44669 14.0311 7.20512 15.1687 7.96356 15.9271 9.1012 16.6856 10.9973 16.6856Z" fill="#1D1D1B" transform="matrix(1.00024 0 0 1 2414.32 1358.91)"/><path d="M10.2389 21.9945C6.82591 21.9945 4.55061 21.2362 2.65452 20.4777 1.13765 19.3401 0 17.4439 0 15.5479L5.68825 15.5479C6.06748 16.6856 7.58434 17.4439 10.2389 17.4439 11.7557 17.4439 12.8933 17.4439 13.6518 17.0648 14.0311 16.6856 14.4102 15.9271 14.4102 15.5479 14.4102 14.7894 14.0311 14.4102 13.6518 14.0311 12.8933 13.6518 11.7557 13.2726 10.2389 13.2726 6.44669 12.8933 4.17138 12.5142 2.65452 11.3765 1.13765 10.6181 0.379217 9.1012 0.379217 6.82591 0.379217 4.55061 1.13765 3.03374 2.65452 1.89608 4.55061 0.758434 6.82591 0 9.48043 0 12.5142 0 14.7894 0.758434 16.6856 1.89608 18.2024 3.03374 18.9608 4.55061 19.3401 6.44669L13.6518 6.44669C13.6518 6.06748 13.2726 5.30904 12.5142 4.92982 11.7557 4.55061 10.9973 4.55061 9.48043 4.55061 8.34278 4.55061 7.20512 4.55061 6.44669 4.92982 6.06748 5.30904 5.68825 5.68825 5.68825 6.44669 5.68825 6.82591 5.68825 7.20512 6.06748 7.58434 6.44669 7.96356 6.82591 7.96356 7.58434 8.34278 7.96356 8.34278 9.1012 8.34278 10.6181 8.34278 12.8933 8.72199 14.7894 9.1012 16.3063 9.48043 17.4439 10.2389 18.5817 10.6181 18.9608 11.7557 19.7193 12.5142 19.7193 13.6518 19.7193 15.1687 19.7193 17.4439 18.9608 18.9608 17.4439 20.0985 15.5479 21.2362 13.2726 21.9945 10.2389 21.9945Z" fill="#1D1D1B" transform="matrix(1.00024 0 0 1 2438.63 1358.94)"/><path d="M12.5142 26.9244C9.85964 26.9244 7.58434 26.5452 6.44669 25.4075 4.92982 23.8907 4.17138 21.9945 4.17138 19.3401L4.17138 10.2389 0 10.2389 0 5.68825 4.17138 5.68825 4.17138 0 10.2389 0 10.2389 5.30904 17.4439 5.30904 17.4439 10.2389 10.2389 10.2389 10.2389 18.5817C10.2389 19.7193 10.2389 20.4777 10.9973 21.2362 11.3765 21.6154 12.5142 21.9945 14.0311 21.9945 14.4102 21.9945 15.1687 21.9945 15.5479 21.9945 16.3063 21.6154 16.6856 21.6154 17.4439 21.6154L17.4439 26.5452C16.6856 26.5452 15.9271 26.9244 15.1687 26.9244 14.4102 26.9244 13.2726 26.9244 12.5142 26.9244Z" fill="#1D1D1B" transform="matrix(1.00024 0 0 1 2459.23 1353.9)"/><path d="M0 20.8569 0 0 5.30904 0 5.30904 3.79217C7.20512 1.13765 9.85964 0 13.6518 0L13.6518 5.30904C10.6181 5.30904 8.72199 6.06748 7.58434 7.20512 6.44669 7.96356 5.68825 9.85964 5.68825 12.5142L5.68825 20.8569 0 20.8569Z" fill="#1D1D1B" transform="matrix(1.00024 0 0 1 2480.08 1359.41)"/><path d="M10.6181 21.9945C7.20512 21.9945 4.55061 20.8569 2.65452 18.9608 0.758434 17.0648 0 14.4102 0 10.9973 0 7.58434 0.758434 4.55061 2.65452 2.65452 4.55061 0.758434 7.20512 0 10.6181 0 14.0311 0 16.6856 1.13765 18.2024 3.03374 20.0985 4.92982 21.2362 7.58434 21.2362 11.3765L5.68825 12.5142C6.06748 14.0311 6.44669 15.1687 7.20512 16.3063 7.96356 17.0648 9.1012 17.4439 10.9973 17.4439 13.2726 17.4439 14.7894 16.6856 15.1687 15.1687L20.8569 15.1687C20.8569 16.3063 20.0985 17.4439 19.3401 18.5817 18.5817 19.7193 17.4439 20.4777 16.3063 20.8569 14.7894 21.6154 12.8933 21.9945 10.6181 21.9945ZM10.6181 4.55061C9.1012 4.55061 8.34278 4.92982 7.20512 5.68825 6.44669 6.06748 6.06748 7.20512 5.68825 9.1012L15.5479 9.1012C15.1687 7.58434 14.7894 6.44669 14.0311 5.68825 13.2726 4.92982 12.135 4.55061 10.6181 4.55061Z" fill="#1D1D1B" transform="matrix(1.00024 0 0 1 2494.96 1358.91)"/><path d="M7.58434 21.9945C5.30904 21.9945 3.41295 21.2362 1.89608 20.0985 0.758434 19.3401 0 17.4439 0 15.5479 0 13.6518 0.758434 12.135 1.89608 10.9973 3.03374 10.2389 4.92982 9.48043 7.58434 9.48043L12.135 9.1012C12.8933 9.1012 13.2726 8.72199 13.6518 8.34278 14.0311 7.96356 14.4102 7.58434 14.4102 6.82591 14.4102 5.30904 12.8933 4.55061 10.6181 4.55061 7.96356 4.55061 6.82591 5.30904 6.44669 6.82591L0.758434 6.82591C0.758434 4.55061 1.89608 3.03374 3.41295 1.89608 5.30904 0.758434 7.58434 0 10.2389 0 13.6518 0 15.9271 0.758434 17.4439 1.89608 18.9608 3.41295 20.0985 5.30904 20.0985 7.58434L20.0985 17.0648C20.0985 18.2024 20.0985 18.9608 20.0985 19.3401 20.0985 20.0985 20.4777 20.8569 20.4777 21.6154L14.7894 21.6154C14.4102 20.8569 14.4102 20.0985 14.4102 18.9608 13.6518 20.0985 12.5142 20.8569 11.7557 21.2362 10.6181 21.6154 9.1012 21.9945 7.58434 21.9945ZM5.68825 15.1687C5.68825 17.0648 6.82591 17.8232 9.48043 17.8232 10.9973 17.8232 12.5142 17.4439 13.2726 16.6856 14.0311 15.9271 14.4102 14.4102 14.4102 12.8933 13.6518 12.5142 12.8933 12.5142 11.7557 12.8933 7.58434 12.8933 6.82591 13.2726 6.44669 13.6518 6.06748 14.0311 5.68825 14.4102 5.68825 15.1687Z" fill="#1D1D1B" transform="matrix(1.00024 0 0 1 2517.45 1358.94)"/><path d="M0 21.6154 0 0.379217 5.30904 0.379217C7.20512 1.13765 9.1012 0 12.135 0 13.6518 0 15.1687 0.379217 16.3063 0.758434 17.4439 1.51687 18.2024 2.2753 18.9608 3.41295 19.7193 2.2753 20.8569 1.51687 21.9945 0.758434 23.5114 0.379217 25.0283 0 26.5452 0 28.8205 0 30.7166 0.758434 32.2335 2.2753 33.7504 3.41295 34.5087 5.68825 34.5087 8.34278L34.5087 21.6154 28.4413 21.6154 28.4413 9.48043C28.4413 6.44669 27.3036 4.92982 24.6491 4.92982 23.1323 4.92982 21.9945 5.30904 21.2362 6.06748 20.4777 6.82591 20.0985 7.96356 20.0985 9.48043L20.0985 21.6154 14.4102 21.6154 14.4102 9.48043C14.4102 6.44669 12.8933 4.92982 10.2389 4.92982 8.72199 4.92982 7.58434 5.30904 6.82591 6.06748 6.06748 6.82591 5.68825 7.96356 5.68825 9.48043L5.68825 21.6154 0 21.6154Z" fill="#1D1D1B" transform="matrix(1.00024 0 0 1 2541.27 1358.91)"/><path d="M310.2 280.62 76.6018 280.62C34.5087 280.62 0 246.112 0 204.019 0 174.061 17.0648 147.515 43.61 135.001 43.2307 129.692 42.8516 124.383 42.8516 119.074 42.8516 53.0904 95.9419 0 161.546 0 218.05 0 264.693 37.9217 277.587 91.012 288.205 87.2199 299.202 85.3238 310.579 85.3238 364.427 85.3238 408.795 129.313 408.795 183.162 408.795 237.011 364.427 280.62 310.2 280.62ZM161.546 25.4075C109.973 25.4075 68.2591 67.5006 68.2591 119.074 68.2591 125.9 69.3967 133.105 70.9136 139.931L73.1889 151.687 61.8124 155.1C40.197 161.926 25.4075 181.645 25.4075 204.019 25.4075 232.081 48.5398 255.213 76.6018 255.213L310.2 255.213C350.397 255.213 382.63 222.6 382.63 182.782 382.63 142.964 350.397 110.352 310.2 110.352 297.686 110.352 284.792 113.765 273.794 120.212L256.351 130.451 254.455 110.352C250.283 62.1916 210.466 25.4075 161.546 25.4075Z" transform="matrix(1.00024 0 0 1 1382.59 1161.56)"/><path d="M59.9163 29.9581C59.9163 13.2726 46.6437 0 29.9581 0 13.2726 0 0 13.2726 0 29.9581 0 46.6437 13.2726 59.9163 29.9581 59.9163 46.6437 59.9163 59.9163 46.6437 59.9163 29.9581Z" fill="#ED2023" transform="matrix(1.00024 0 0 -1 1494.03 1390.19)"/><path d="M4.92982 9.85964C2.2753 9.85964 0 7.58434 0 4.92982 0 2.2753 2.2753 0 4.92982 0 7.96356 0 9.85964 2.2753 9.85964 4.92982 9.85964 7.58434 7.96356 9.85964 4.92982 9.85964Z" fill="#FFFFFF" transform="matrix(1.00024 0 0 -1 1513.08 1353.9)"/><path d="M12.5142 6.06748C14.4102 6.06748 15.9271 6.82591 17.0648 7.96356 18.2024 9.1012 18.5817 10.6181 18.5817 13.2726 18.5817 15.5479 18.2024 17.0648 17.0648 18.5817 15.9271 19.7193 14.4102 20.0985 12.5142 20.0985 10.6181 20.0985 9.1012 19.7193 8.34278 18.5817 7.20512 17.0648 6.44669 15.5479 6.44669 13.2726 6.44669 10.6181 7.20512 9.1012 8.34278 7.96356 9.1012 6.82591 10.6181 6.06748 12.5142 6.06748ZM0 0.758434 0 35.6464 6.82591 35.6464 6.82591 22.753C7.58434 23.8907 8.72199 24.6491 9.85964 25.4075 11.3765 25.7868 12.8933 26.166 14.4102 26.166 17.8232 26.166 20.4777 25.0283 22.753 22.753 24.6491 20.4777 25.7868 17.4439 25.7868 13.2726 25.7868 9.1012 24.6491 5.68825 22.753 3.41295 20.4777 1.13765 17.8232 0 14.4102 0 12.8933 0 10.9973 0.379217 9.85964 1.13765 8.34278 1.89608 7.58434 2.65452 6.44669 3.79217L0 0.758434Z" fill="#151516" transform="matrix(1.00024 0 0 -1 1558.1 1380.79)"/><path d="M0 0 0 34.888 6.82591 34.888 6.82591 0 0 0Z" fill="#151516" transform="matrix(1.00024 0 0 -1 1588.15 1380.18)"/><path d="M13.2726 6.06748C15.1687 6.06748 16.6856 6.82591 17.4439 7.96356 18.5817 9.1012 19.3401 10.6181 19.3401 13.2726 19.3401 15.5479 18.5817 17.0648 17.4439 18.5817 16.6856 19.7193 15.1687 20.0985 13.2726 20.0985 10.9973 20.0985 9.48043 19.7193 8.72199 18.5817 7.58434 17.0648 6.82591 15.5479 6.82591 13.2726 6.82591 10.6181 7.58434 9.1012 8.72199 7.96356 9.48043 6.82591 10.9973 6.06748 13.2726 6.06748ZM13.2726 0C9.1012 0 6.06748 1.13765 3.41295 3.41295 1.13765 5.68825 0 8.72199 0 13.2726 0 17.4439 1.13765 20.8569 3.41295 22.753 6.06748 25.0283 9.1012 26.166 13.2726 26.166 17.0648 26.166 20.0985 25.0283 22.753 22.753 25.0283 20.8569 26.166 17.4439 26.166 13.2726 26.166 8.72199 25.0283 5.68825 22.753 3.41295 20.0985 1.13765 17.0648 0 13.2726 0Z" fill="#151516" transform="matrix(1.00024 0 0 -1 1598.95 1380.79)"/><path d="M0 0 9.48043 12.5142 0.379217 25.0283 8.34278 25.0283 14.0311 17.4439 19.3401 25.0283 26.9244 25.0283 17.8232 12.5142 27.3036 0 18.9608 0 13.2726 7.96356 7.58434 0 0 0Z" fill="#151516" transform="matrix(1.00024 0 0 -1 1625.43 1380.18)"/><path d="M9.85964 0C6.82591 0 4.55061 0.758434 2.65452 2.2753 0.758434 3.79217 0 6.44669 0 9.85964L0 25.7868 6.82591 25.7868 6.82591 10.9973C6.82591 9.1012 7.20512 7.96356 7.96356 7.20512 8.72199 6.44669 9.85964 6.06748 11.3765 6.06748 13.2726 6.06748 14.4102 6.44669 15.5479 7.58434 16.3063 8.34278 16.6856 9.85964 16.6856 11.7557L16.6856 25.7868 23.8907 25.7868 23.8907 0.758434 17.0648 0.758434C15.1687 1.13765 12.8933 0 9.85964 0Z" fill="#FFFFFF" transform="matrix(1.00024 0 0 -1 1526.46 1380.79)"/><path d="M86.0823 121.729 68.2591 61.4331C67.8799 59.537 65.9837 58.0202 64.0876 58.0202L58.3994 58.0202 58.3994 31.8542C59.537 29.9581 59.537 27.3036 57.641 25.7868 55.7449 23.5114 52.3319 23.5114 50.4358 25.7868 48.9189 27.3036 48.5398 29.9581 49.6774 31.8542L49.6774 58.0202 44.3683 58.0202C42.0931 58.0202 40.5762 59.537 39.8178 61.4331L21.9945 121.729 0 121.729 0 130.83 108.077 130.83 108.077 121.729 86.0823 121.729ZM74.3266 113.386 45.1268 101.251 68.2591 92.1498 74.3266 113.386ZM60.6748 66.7422 63.7085 77.3603 47.4021 67.1214 60.6748 66.7422ZM44.7476 75.8435 60.6748 85.703 39.4386 93.6666 44.7476 75.8435ZM35.6464 106.939 71.672 121.729 31.0958 121.729 35.6464 106.939ZM74.3266 52.3319 80.7732 58.7786C88.3575 50.8151 92.9081 40.5762 92.9081 29.1998 92.9081 18.2024 88.3575 7.96356 80.7732 0L74.3266 6.44669C80.3941 12.5142 83.8069 20.8569 83.8069 29.1998 83.8069 37.9217 80.3941 46.2645 74.3266 52.3319Z" transform="matrix(1.00024 0 0 1 3059.94 1002.3)"/><path d="M53.0904 47.0229C57.641 42.0931 60.2955 36.0256 60.2955 29.1998 60.2955 22.3738 57.641 16.3063 53.0904 11.7557L46.6437 17.8232C49.6774 20.8569 51.5735 25.0283 51.5735 29.1998 51.5735 33.7504 49.6774 37.5425 46.6437 40.9555L53.0904 47.0229ZM18.5817 52.3319C5.68825 39.8178 5.68825 18.9608 18.5817 6.44669L12.135 0C4.17138 7.96356 0 18.2024 0 29.1998 0 40.5762 4.17138 50.8151 12.135 58.7786L18.5817 52.3319Z" transform="matrix(1.00024 0 0 1 3075.72 1002.3)"/><path d="M7.20512 35.2672 13.6518 29.1998C7.20512 22.753 7.20512 12.5142 13.6518 6.06748L7.20512 0C-2.2753 9.85964-2.2753 25.7868 7.20512 35.2672Z" transform="matrix(1.00024 0 0 1 3092.3 1013.94)"/><path d="M89.8744 127.796 71.2928 64.0876C70.9136 62.1916 69.0175 61.0539 66.7422 61.0539L61.0539 61.0539 61.0539 33.7504C62.5708 31.475 62.1916 28.8205 60.2955 26.9244 58.3994 24.6491 54.9864 24.6491 52.7112 26.9244 50.8151 28.4413 50.8151 31.475 51.9527 33.3711L51.9527 61.0539 46.2645 61.0539C44.3683 61.0539 42.4723 62.1916 41.7138 64.0876L23.1323 127.796 0 127.796 0 136.898 113.007 136.898 113.007 127.796 89.8744 127.796ZM77.7395 119.074 47.0229 106.181 71.2928 96.7004 77.7395 119.074ZM63.3293 70.1551 66.7422 81.1524 49.6774 70.1551 63.3293 70.1551ZM47.0229 79.6356 63.3293 89.8744 41.3346 98.5964 47.0229 79.6356ZM37.5425 111.869 75.085 127.796 32.6126 127.796 37.5425 111.869ZM77.7395 54.9864 84.1862 61.4331C92.5289 53.4696 97.0795 42.4723 97.0795 30.7166 97.0795 19.3401 92.5289 8.34278 84.1862 0L77.7395 6.44669C84.1862 12.8933 87.9784 21.6154 87.9784 30.7166 87.9784 39.8178 84.1862 48.5398 77.7395 54.9864Z" transform="matrix(1.00024 0 0 1 526.793 1137.6)"/><path d="M55.3657 49.2982C60.2955 44.3683 63.3293 37.5425 63.3293 30.7166 63.3293 23.5114 60.2955 17.0648 55.3657 12.135L48.9189 18.9608C52.3319 21.9945 53.8488 26.166 53.8488 30.7166 53.8488 35.2672 52.3319 39.4386 48.9189 42.8516L55.3657 49.2982ZM19.3401 54.9864C6.06748 41.7138 6.06748 20.0985 19.3401 6.44669L12.5142 0C4.55061 8.34278 0 19.3401 0 30.7166 0 42.4723 4.55061 53.4696 12.5142 61.4331L19.3401 54.9864Z" transform="matrix(1.00024 0 0 1 543.293 1137.6)"/><path d="M7.58434 37.1632 14.4102 30.3374C7.58434 23.8907 7.58434 12.8933 14.4102 6.44669L7.58434 0C-2.65452 10.2389-2.65452 26.9244 7.58434 37.1632Z" transform="matrix(1.00024 0 0 1 560.627 1149.84)"/><path d="M89.8744 127.796 71.2928 64.0876C70.9136 62.1916 69.0175 61.0539 66.7422 61.0539L61.0539 61.0539 61.0539 33.7504C62.5708 31.475 62.1916 28.8205 60.2955 26.9244 58.3994 24.6491 54.9864 24.6491 52.7112 26.9244 50.8151 28.4413 50.8151 31.475 51.9527 33.3711L51.9527 61.0539 46.2645 61.0539C44.3683 61.0539 42.4723 62.1916 41.7138 64.0876L23.1323 127.796 0 127.796 0 136.898 113.007 136.898 113.007 127.796 89.8744 127.796ZM77.7395 119.074 47.0229 106.181 71.2928 96.7004 77.7395 119.074ZM63.3293 70.1551 66.7422 81.1524 49.6774 70.1551 63.3293 70.1551ZM47.0229 79.6356 63.3293 89.8744 41.3346 98.5964 47.0229 79.6356ZM37.5425 111.869 75.085 127.796 32.6126 127.796 37.5425 111.869ZM77.7395 54.9864 84.1862 61.4331C92.5289 53.4696 97.0795 42.4723 97.0795 30.7166 97.0795 19.3401 92.5289 8.34278 84.1862 0L77.7395 6.44669C84.1862 12.8933 87.9784 21.6154 87.9784 30.7166 87.9784 39.8178 84.1862 48.5398 77.7395 54.9864Z" transform="matrix(1.00024 0 0 1 663.837 1150.95)"/><path d="M55.3657 49.2982C60.2955 44.3683 63.3293 37.5425 63.3293 30.7166 63.3293 23.5114 60.2955 17.0648 55.3657 12.135L48.9189 18.9608C52.3319 21.9945 53.8488 26.166 53.8488 30.7166 53.8488 35.2672 52.3319 39.4386 48.9189 42.8516L55.3657 49.2982ZM19.3401 54.9864C6.06748 41.7138 6.06748 20.0985 19.3401 6.44669L12.5142 0C4.55061 8.34278 0 19.3401 0 30.7166 0 42.4723 4.55061 53.4696 12.5142 61.4331L19.3401 54.9864Z" transform="matrix(1.00024 0 0 1 680.337 1150.95)"/><path d="M7.58434 37.1632 14.4102 30.3374C7.58434 23.8907 7.58434 12.8933 14.4102 6.44669L7.58434 0C-2.65452 10.2389-2.65452 26.9244 7.58434 37.1632Z" transform="matrix(1.00024 0 0 1 697.673 1163.2)"/><path d="M89.8744 127.796 71.2928 64.0876C70.9136 62.1916 69.0175 61.0539 66.7422 61.0539L61.0539 61.0539 61.0539 33.7504C62.5708 31.475 62.1916 28.8205 60.2955 26.9244 58.3994 24.6491 54.9864 24.6491 52.7112 26.9244 50.8151 28.4413 50.8151 31.475 51.9527 33.3711L51.9527 61.0539 46.2645 61.0539C44.3683 61.0539 42.4723 62.1916 41.7138 64.0876L23.1323 127.796 0 127.796 0 136.898 113.007 136.898 113.007 127.796 89.8744 127.796ZM77.7395 119.074 47.0229 106.181 71.2928 96.7004 77.7395 119.074ZM63.3293 70.1551 66.7422 81.1524 49.6774 70.1551 63.3293 70.1551ZM47.0229 79.6356 63.3293 89.8744 41.3346 98.5964 47.0229 79.6356ZM37.5425 111.869 75.085 127.796 32.6126 127.796 37.5425 111.869ZM77.7395 54.9864 84.1862 61.4331C92.5289 53.4696 97.0795 42.4723 97.0795 30.7166 97.0795 19.3401 92.5289 8.34278 84.1862 0L77.7395 6.44669C84.1862 12.8933 87.9784 21.6154 87.9784 30.7166 87.9784 39.8178 84.1862 48.5398 77.7395 54.9864Z" transform="matrix(1.00024 0 0 1 447.707 1287.77)"/><path d="M55.3657 49.2982C60.2955 44.3683 63.3293 37.5425 63.3293 30.7166 63.3293 23.5114 60.2955 17.0648 55.3657 12.135L48.9189 18.9608C52.3319 21.9945 53.8488 26.166 53.8488 30.7166 53.8488 35.2672 52.3319 39.4386 48.9189 42.8516L55.3657 49.2982ZM19.3401 54.9864C6.06748 41.7138 6.06748 20.0985 19.3401 6.44669L12.5142 0C4.55061 8.34278 0 19.3401 0 30.7166 0 42.4723 4.55061 53.4696 12.5142 61.4331L19.3401 54.9864Z" transform="matrix(1.00024 0 0 1 464.207 1287.77)"/><path d="M7.58434 37.1632 14.4102 30.3374C7.58434 23.8907 7.58434 12.8933 14.4102 6.44669L7.58434 0C-2.65452 10.2389-2.65452 26.9244 7.58434 37.1632Z" transform="matrix(1.00024 0 0 1 481.541 1300.02)"/><path d="M89.8744 127.796 71.2928 64.0876C70.9136 62.1916 69.0175 61.0539 66.7422 61.0539L61.0539 61.0539 61.0539 33.7504C62.5708 31.475 62.1916 28.8205 60.2955 26.9244 58.3994 24.6491 54.9864 24.6491 52.7112 26.9244 50.8151 28.4413 50.8151 31.475 51.9527 33.3711L51.9527 61.0539 46.2645 61.0539C44.3683 61.0539 42.4723 62.1916 41.7138 64.0876L23.1323 127.796 0 127.796 0 136.898 113.007 136.898 113.007 127.796 89.8744 127.796ZM77.7395 119.074 47.0229 106.181 71.2928 96.7004 77.7395 119.074ZM63.3293 70.1551 66.7422 81.1524 49.6774 70.1551 63.3293 70.1551ZM47.0229 79.6356 63.3293 89.8744 41.3346 98.5964 47.0229 79.6356ZM37.5425 111.869 75.085 127.796 32.6126 127.796 37.5425 111.869ZM77.7395 54.9864 84.1862 61.4331C92.5289 53.4696 97.0795 42.4723 97.0795 30.7166 97.0795 19.3401 92.5289 8.34278 84.1862 0L77.7395 6.44669C84.1862 12.8933 87.9784 21.6154 87.9784 30.7166 87.9784 39.8178 84.1862 48.5398 77.7395 54.9864Z" transform="matrix(1.00024 0 0 1 579.631 1329.18)"/><path d="M55.3657 49.2982C60.2955 44.3683 63.3293 37.5425 63.3293 30.7166 63.3293 23.5114 60.2955 17.0648 55.3657 12.135L48.9189 18.9608C52.3319 21.9945 53.8488 26.166 53.8488 30.7166 53.8488 35.2672 52.3319 39.4386 48.9189 42.8516L55.3657 49.2982ZM19.3401 54.9864C6.06748 41.7138 6.06748 20.0985 19.3401 6.44669L12.5142 0C4.55061 8.34278 0 19.3401 0 30.7166 0 42.4723 4.55061 53.4696 12.5142 61.4331L19.3401 54.9864Z" transform="matrix(1.00024 0 0 1 596.131 1329.18)"/><path d="M7.58434 37.1632 14.4102 30.3374C7.58434 23.8907 7.58434 12.8933 14.4102 6.44669L7.58434 0C-2.65452 10.2389-2.65452 26.9244 7.58434 37.1632Z" transform="matrix(1.00024 0 0 1 613.466 1341.43)"/><path d="M89.8744 127.796 71.2928 64.0876C70.9136 62.1916 69.0175 61.0539 66.7422 61.0539L61.0539 61.0539 61.0539 33.7504C62.5708 31.475 62.1916 28.8205 60.2955 26.9244 58.3994 24.6491 54.9864 24.6491 52.7112 26.9244 50.8151 28.4413 50.8151 31.475 51.9527 33.3711L51.9527 61.0539 46.2645 61.0539C44.3683 61.0539 42.4723 62.1916 41.7138 64.0876L23.1323 127.796 0 127.796 0 136.898 113.007 136.898 113.007 127.796 89.8744 127.796ZM77.7395 119.074 47.0229 106.181 71.2928 96.7004 77.7395 119.074ZM63.3293 70.1551 66.7422 81.1524 49.6774 70.1551 63.3293 70.1551ZM47.0229 79.6356 63.3293 89.8744 41.3346 98.5964 47.0229 79.6356ZM37.5425 111.869 75.085 127.796 32.6126 127.796 37.5425 111.869ZM77.7395 54.9864 84.1862 61.4331C92.5289 53.4696 97.0795 42.4723 97.0795 30.7166 97.0795 19.3401 92.5289 8.34278 84.1862 0L77.7395 6.44669C84.1862 12.8933 87.9784 21.6154 87.9784 30.7166 87.9784 39.8178 84.1862 48.5398 77.7395 54.9864Z" transform="matrix(1.00024 0 0 1 729.8 1315.72)"/><path d="M55.3657 49.2982C60.2955 44.3683 63.3293 37.5425 63.3293 30.7166 63.3293 23.5114 60.2955 17.0648 55.3657 12.135L48.9189 18.9608C52.3319 21.9945 53.8488 26.166 53.8488 30.7166 53.8488 35.2672 52.3319 39.4386 48.9189 42.8516L55.3657 49.2982ZM19.3401 54.9864C6.06748 41.7138 6.06748 20.0985 19.3401 6.44669L12.5142 0C4.55061 8.34278 0 19.3401 0 30.7166 0 42.4723 4.55061 53.4696 12.5142 61.4331L19.3401 54.9864Z" transform="matrix(1.00024 0 0 1 746.3 1315.72)"/><path d="M7.58434 37.1632 14.4102 30.3374C7.58434 23.8907 7.58434 12.8933 14.4102 6.44669L7.58434 0C-2.65452 10.2389-2.65452 26.9244 7.58434 37.1632Z" transform="matrix(1.00024 0 0 1 763.634 1327.97)"/><path d="M0 0 254.216 0" stroke="#FF6E59" stroke-width="10.1636" fill="none" transform="matrix(0.517513 0.855675 -0.855886 0.517386 315.137 929.823)"/><path d="M302.62 0 254.216-12.1963 254.216 12.1963 302.62 0" stroke="#FF6E59" stroke-width="3.81134" stroke-linecap="round" fill="#FF6E59" transform="matrix(0.517513 0.855675 -0.855886 0.517386 315.137 929.823)"/><path d="M0 0 2959.03 0" stroke="#5A5A5A" stroke-width="10.1125" fill="none" transform="matrix(1.00024 0 0 1 501 618.868)"/><path d="M3007.19 0 2959.03-12.135 2959.03 12.135 3007.19 0" stroke="#5A5A5A" stroke-width="3.79217" stroke-linecap="round" fill="#5A5A5A" transform="matrix(1.00024 0 0 1 501 618.868)"/><path d="M0 0 924.911 0" stroke="#FF6E59" stroke-width="10.1125" stroke-dasharray="9.48043 9.48043" fill="none" transform="matrix(1.00024 0 0 1 2535.66 842.145)"/><path d="M973.071 0 924.911-12.135 924.911 12.135 973.071 0" stroke="#FF6E59" stroke-width="3.79217" stroke-linecap="round" fill="#FF6E59" transform="matrix(1.00024 0 0 1 2535.66 842.145)"/><path d="M0 0 287.831 0" stroke="#FF6E59" stroke-width="10.1127" fill="none" transform="matrix(0.960218 -0.279994 0.280064 0.959981 2716.17 1164.94)"/><path d="M335.993 0 287.831-12.1352 287.831 12.1352 335.993 0" stroke="#FF6E59" stroke-width="3.79224" stroke-linecap="round" fill="#FF6E59" transform="matrix(0.960218 -0.279994 0.280064 0.959981 2716.17 1164.94)"/><path d="M0 0 236.252 0" stroke="#FF6E59" stroke-width="10.1125" fill="none" transform="matrix(1.00024 0 0 1 3222.21 1067.6)"/><path d="M284.413 0 236.252-12.135 236.252 12.135 284.413 0" stroke="#FF6E59" stroke-width="3.79217" stroke-linecap="round" fill="#FF6E59" transform="matrix(1.00024 0 0 1 3222.21 1067.6)"/><path d="M0 0 251.42 0" stroke="#FF6E59" stroke-width="10.1125" fill="none" transform="matrix(1.00024 0 0 1 2723.76 1290.31)"/><path d="M299.581 0 251.42-12.135 251.42 12.135 299.581 0" stroke="#FF6E59" stroke-width="3.79217" stroke-linecap="round" fill="#FF6E59" transform="matrix(1.00024 0 0 1 2723.76 1290.31)"/><path d="M0 0 281.758 0" stroke="#FF6E59" stroke-width="10.1125" fill="none" transform="matrix(1.00024 0 0 1 1847.56 1350.76)"/><path d="M329.919 0 281.758-12.135 281.758 12.135 329.919 0" stroke="#FF6E59" stroke-width="3.79217" stroke-linecap="round" fill="#FF6E59" transform="matrix(1.00024 0 0 1 1847.56 1350.76)"/><path d="M0 0 432.378 0" stroke="#FF6E59" stroke-width="10.1053" stroke-dasharray="9.47367 9.47367" fill="none" transform="matrix(0.920882 -0.390278 0.390374 0.920656 1689.76 1032.21)"/><path d="M480.504 0 432.378-12.1263 432.378 12.1263 480.504 0" stroke="#FF6E59" stroke-width="3.78947" stroke-linecap="round" fill="#FF6E59" transform="matrix(0.920882 -0.390278 0.390374 0.920656 1689.76 1032.21)"/><path d="M0 0 315.13 0" stroke="#FF6E59" stroke-width="10.1125" fill="none" transform="matrix(1.00024 0 0 1 929.625 1350.76)"/><path d="M363.669 0 315.13-12.135 315.13 12.135 363.669 0" stroke="#FF6E59" stroke-width="3.79217" stroke-linecap="round" fill="#FF6E59" transform="matrix(1.00024 0 0 1 929.625 1350.76)"/><path d="M48.5398 23.1323 43.61 23.1323 43.61 16.6856C43.61 7.58434 36.4049 0 26.9244 0 17.8232 0 10.6181 7.58434 10.6181 16.6856L10.6181 23.1323 5.68825 23.1323C2.65452 23.1323 0 25.7868 0 28.8205L0 58.7786C0 61.8124 2.65452 64.4669 5.68825 64.4669L48.5398 64.4669C51.5735 64.4669 54.228 61.8124 54.228 58.7786L54.228 28.8205C54.228 25.7868 51.5735 23.1323 48.5398 23.1323ZM15.1687 16.6856C15.1687 9.85964 20.4777 4.55061 26.9244 4.55061 33.7504 4.55061 39.0593 9.85964 39.0593 16.6856L39.0593 23.1323 15.1687 23.1323 15.1687 16.6856ZM49.6774 58.7786C49.6774 59.537 49.2982 59.9163 48.5398 59.9163L5.68825 59.9163C4.92982 59.9163 4.55061 59.537 4.55061 58.7786L4.55061 28.8205C4.55061 28.062 4.92982 27.6829 5.68825 27.6829L48.5398 27.6829C49.2982 27.6829 49.6774 28.062 49.6774 28.8205L49.6774 58.7786Z" fill="#BEBEBE" transform="matrix(1.00024 0 0 1 3086.84 829.787)"/><path d="M5.68825 0C2.65452 0 0 2.65452 0 5.68825 0 8.34278 1.51687 10.2389 3.41295 10.9973L3.41295 19.7193 7.96356 19.7193 7.96356 10.9973C10.2389 10.2389 11.7557 8.34278 11.7557 5.68825 11.7557 2.65452 9.1012 0 5.68825 0Z" fill="#BEBEBE" transform="matrix(1.00024 0 0 1 3108.08 863.728)"/><path d="M310.2 280.62 76.6018 280.62C34.5087 280.62 0 246.112 0 204.019 0 174.061 17.0648 147.515 43.61 135.001 43.2307 129.692 42.8516 124.383 42.8516 119.074 42.8516 53.0904 95.9419 0 161.546 0 218.05 0 264.693 37.9217 277.587 91.012 288.205 87.2199 299.202 85.3238 310.579 85.3238 364.427 85.3238 408.795 129.313 408.795 183.162 408.795 237.011 364.427 280.62 310.2 280.62ZM161.546 25.4075C109.973 25.4075 68.2591 67.5006 68.2591 119.074 68.2591 125.9 69.3967 133.105 70.9136 139.931L73.1889 151.687 61.8124 155.1C40.197 161.926 25.4075 181.645 25.4075 204.019 25.4075 232.081 48.5398 255.213 76.6018 255.213L310.2 255.213C350.397 255.213 382.63 222.6 382.63 182.782 382.63 142.964 350.397 110.352 310.2 110.352 297.686 110.352 284.792 113.765 273.794 120.212L256.351 130.451 254.455 110.352C250.283 62.1916 210.466 25.4075 161.546 25.4075Z" transform="matrix(1.00024 0 0 1 2238.74 1161.56)"/><path d="M101.63 35.2672 75.085 35.2672 75.085 6.82591C76.2226 5.30904 76.2226 3.03374 74.7057 1.13765 72.8097-0.379217 70.1551-0.379217 68.6382 1.13765 67.1214 3.03374 66.7422 5.30904 68.2591 6.82591L68.2591 35.2672 7.20512 35.2672C3.03374 35.2672 0 38.6801 0 42.4723L0 69.776C0 73.5681 3.03374 76.9811 7.20512 76.9811L101.63 76.9811C105.422 76.9811 108.835 73.5681 108.835 69.776L108.835 42.4723C108.835 38.6801 105.422 35.2672 101.63 35.2672ZM102.009 69.776C102.009 69.776 101.63 69.776 101.63 69.776L7.20512 69.776C6.82591 69.776 6.82591 69.776 6.82591 69.776L6.82591 42.4723C6.82591 42.4723 6.82591 42.4723 7.20512 42.4723L101.63 42.4723C101.63 42.4723 102.009 42.4723 102.009 42.4723L102.009 69.776Z" transform="matrix(1.00024 0 0 1 3059.94 1240.79)"/><path d="M8.72199 4.17138C8.72199 6.82591 6.82591 8.72199 4.17138 8.72199 1.89608 8.72199 0 6.82591 0 4.17138 0 1.89608 1.89608 0 4.17138 0 6.82591 0 8.72199 1.89608 8.72199 4.17138Z" transform="matrix(1.00024 0 0 1 3073.75 1292.58)"/><path d="M40.5762 73.5681 3.41295 73.5681C1.51687 73.5681 0 75.085 0 76.9811 0 78.8772 1.51687 80.3941 3.41295 80.3941L40.5762 80.3941C42.4723 80.3941 43.9892 78.8772 43.9892 76.9811 43.9892 75.085 42.4723 73.5681 40.5762 73.5681ZM38.6801 43.9892 43.61 48.9189C50.0567 42.4723 53.8488 33.7504 53.8488 24.2699 53.8488 15.1687 50.0567 6.44669 43.61 0L38.6801 4.92982C43.9892 10.2389 46.6437 17.0648 46.6437 24.2699 46.6437 31.8542 43.9892 38.6801 38.6801 43.9892Z" transform="matrix(1.00024 0 0 1 3110.01 1220.68)"/><path d="M44.3683 39.0593C52.3319 31.0958 52.3319 17.8232 44.3683 9.85964L39.4386 14.7894C44.7476 20.0985 44.7476 28.8205 39.4386 34.5087L44.3683 39.0593ZM15.1687 43.9892C4.17138 33.3711 4.17138 15.5479 15.1687 4.92982L10.2389 0C-3.41295 13.2726-3.41295 35.2672 10.2389 48.9189L15.1687 43.9892Z" transform="matrix(1.00024 0 0 1 3099.46 1220.61)"/><path d="M6.06748 29.1998 10.9973 24.2699C5.68825 18.9608 5.68825 10.2389 10.9973 4.92982L6.06748 0C-1.89608 7.96356-1.89608 21.2362 6.06748 29.1998Z" transform="matrix(1.00024 0 0 1 3113.31 1230.43)"/><path d="M0 0 236.252 0" stroke="#FF6E59" stroke-width="10.1125" fill="none" transform="matrix(1.00024 0 0 1 3220.88 1290.31)"/><path d="M284.413 0 236.252-12.135 236.252 12.135 284.413 0" stroke="#FF6E59" stroke-width="3.79217" stroke-linecap="round" fill="#FF6E59" transform="matrix(1.00024 0 0 1 3220.88 1290.31)"/><path d="M143.344 80.7732 120.591 58.0202C127.796 50.4358 127.796 43.9892 124.004 39.8178L103.147 18.9608C100.872 17.0648 98.2172 15.9271 95.5626 15.9271 92.9081 15.9271 90.2537 17.0648 88.3575 18.9608L84.5654 22.753 61.8124 0 33.3711 28.4413 56.5033 51.1943 42.8516 64.8461C38.6801 68.6382 38.6801 75.4642 42.8516 79.2563L48.9189 85.703 41.7138 92.9081C41.3346 92.9081 41.3346 92.9081 41.3346 93.2874 38.6801 95.5626 38.6801 99.3549 41.3346 101.63 43.61 103.905 47.0229 103.905 49.2982 101.63 49.6774 101.251 49.6774 101.251 50.0567 100.872L57.2618 93.6666 63.3293 100.113C65.2254 102.009 67.8799 103.147 70.5344 103.147 73.5681 103.147 76.2226 102.009 78.1187 100.113L92.1498 86.0823 114.902 108.835 143.344 80.7732ZM46.6437 28.4413 61.8124 12.8933 78.1187 29.1998 69.0175 38.301 62.95 44.3683 46.6437 28.4413ZM71.672 93.6666C71.672 94.0458 71.2928 94.0458 70.9136 94.0458 70.5344 94.0458 70.5344 94.0458 70.1551 93.6666L49.2982 72.8097C48.9189 72.4305 48.9189 71.672 49.2982 71.2928L75.085 45.1268 91.012 29.1998 94.8043 25.4075C95.1835 25.4075 95.5626 25.0283 95.5626 25.0283 95.9419 25.0283 96.3211 25.4075 96.7004 25.4075L117.557 46.2645C117.937 46.6437 117.937 47.4021 117.557 48.1606L85.703 79.6356 71.672 93.6666ZM100.113 78.1187 114.144 64.4669 130.451 80.7732 115.282 95.9419 100.113 78.1187ZM9.1012 87.5992 0 87.5992C0.379217 118.316 25.7868 143.724 56.5033 144.102L56.5033 135.001C30.7166 134.623 9.48043 113.386 9.1012 87.5992Z" transform="matrix(-1.00024 0 0 1 2434.73 772.829)"/><path d="M9.1012 0 0 0C0.379217 21.6154 17.4439 38.6801 38.6801 38.6801L38.6801 29.5789C22.3738 29.1998 9.48043 16.3063 9.1012 0Z" transform="matrix(-1.00024 0 0 1 2417.09 860.352)"/><text font-family="Arial,Arial_MSFontService,sans-serif" font-weight="700" font-size="13" transform="matrix(0 -3.79217 3.7931 0 4317.24 920)">Case</text><text font-family="Arial,Arial_MSFontService,sans-serif" font-weight="700" font-size="13" transform="matrix(0 -3.79217 3.7931 0 4317.24 802)">1</text><text font-family="Arial,Arial_MSFontService,sans-serif" font-weight="700" font-size="13" transform="matrix(0 -3.79217 3.7931 0 4317.24 1144)">Case</text><text font-family="Arial,Arial_MSFontService,sans-serif" font-weight="700" font-size="13" transform="matrix(0 -3.79217 3.7931 0 4317.24 1026)">2</text><text font-family="Arial,Arial_MSFontService,sans-serif" font-weight="700" font-size="13" transform="matrix(0 -3.79217 3.7931 0 4317.24 1364)">Case</text><text font-family="Arial,Arial_MSFontService,sans-serif" font-weight="700" font-size="13" transform="matrix(0 -3.79217 3.7931 0 4317.24 1246)">3</text><path d="M41.7138 0 1478.94 0C1502.08 0 1520.66 18.5817 1520.66 41.7138L1520.66 151.687C1520.66 174.819 1502.08 193.401 1478.94 193.401L41.7138 193.401C18.5817 193.401 0 174.819 0 151.687L0 41.7138C0 18.5817 18.5817 0 41.7138 0Z" stroke="#BEBEBE" stroke-width="3.79217" fill="#BEBEBE" fill-opacity="0.03" transform="matrix(1.00024 0 0 1 2818.59 751.588)"/><path d="M41.7138 0 1478.94 0C1502.08 0 1520.66 18.5817 1520.66 41.7138L1520.66 151.687C1520.66 174.819 1502.08 193.401 1478.94 193.401L41.7138 193.401C18.5817 193.401 0 174.819 0 151.687L0 41.7138C0 18.5817 18.5817 0 41.7138 0Z" stroke="#BEBEBE" stroke-width="3.79217" fill="#BEBEBE" fill-opacity="0.03" transform="matrix(1.00024 0 0 1 2818.59 971.543)"/><path d="M41.7138 0 1478.94 0C1502.08 0 1520.66 18.5817 1520.66 41.7138L1520.66 155.1C1520.66 178.232 1502.08 196.813 1478.94 196.813L41.7138 196.813C18.5817 196.813 0 178.232 0 155.1L0 41.7138C0 18.5817 18.5817 0 41.7138 0Z" stroke="#BEBEBE" stroke-width="3.79217" fill="#BEBEBE" fill-opacity="0.03" transform="matrix(1.00024 0 0 1 2818.59 1191.91)"/><path d="M26.5452 0 439.892 0C454.681 0 466.437 11.7557 466.437 26.5452L466.437 142.964C466.437 157.755 454.681 169.51 439.892 169.51L26.5452 169.51C11.7557 169.51 0 157.755 0 142.964L0 26.5452C0 11.7557 11.7557 0 26.5452 0Z" fill="#FF6E59" transform="matrix(1.00024 0 0 1 3565.83 761.717)"/><text font-family="Arial,Arial_MSFontService,sans-serif" font-weight="700" font-size="13" transform="matrix(3.7931 0 0 3.79217 3596.17 862)">L</text><text font-family="Arial,Arial_MSFontService,sans-serif" font-weight="700" font-size="13" transform="matrix(3.7931 0 0 3.79217 3626.52 862)">-</text><text font-family="Arial,Arial_MSFontService,sans-serif" font-weight="700" font-size="13" transform="matrix(3.7931 0 0 3.79217 3641.69 862)">BAND receiver</text><path d="M26.5452 0 439.892 0C454.681 0 466.437 11.7557 466.437 26.5452L466.437 142.964C466.437 157.755 454.681 169.51 439.892 169.51L26.5452 169.51C11.7557 169.51 0 157.755 0 142.964L0 26.5452C0 11.7557 11.7557 0 26.5452 0Z" fill="#FF6E59" transform="matrix(1.00024 0 0 1 3565.83 982.798)"/><text font-family="Arial,Arial_MSFontService,sans-serif" font-weight="700" font-size="13" transform="matrix(3.7931 0 0 3.79217 3603.76 1083)">Cellular Modem</text><path d="M26.5452 0 360.256 0C375.045 0 386.801 11.7557 386.801 26.5452L386.801 142.964C386.801 157.755 375.045 169.51 360.256 169.51L26.5452 169.51C11.7557 169.51 0 157.755 0 142.964L0 26.5452C0 11.7557 11.7557 0 26.5452 0Z" fill="#FF6E59" transform="matrix(1.00024 0 0 1 3763.07 1203.89)"/><text font-family="Arial,Arial_MSFontService,sans-serif" font-weight="700" font-size="13" transform="matrix(3.7931 0 0 3.79217 3838.93 1274)">Wi</text><text font-family="Arial,Arial_MSFontService,sans-serif" font-weight="700" font-size="13" transform="matrix(3.7931 0 0 3.79217 3903.41 1274)">-</text><text font-family="Arial,Arial_MSFontService,sans-serif" font-weight="700" font-size="13" transform="matrix(3.7931 0 0 3.79217 3918.59 1274)">Fi </text><text font-family="Arial,Arial_MSFontService,sans-serif" font-weight="700" font-size="13" transform="matrix(3.7931 0 0 3.79217 3979.27 1274)">/ </text><text font-family="Arial,Arial_MSFontService,sans-serif" font-weight="700" font-size="13" transform="matrix(3.7931 0 0 3.79217 4009.62 1274)">BT </text><text font-family="Arial,Arial_MSFontService,sans-serif" font-weight="700" font-size="13" transform="matrix(3.7931 0 0 3.79217 3797.2 1334)">capable Host</text><path d="M146.757 82.6693 123.245 59.1579C130.83 51.5735 130.83 45.1268 127.038 40.9555L105.422 19.3401C103.526 17.4439 100.872 16.3063 97.838 16.3063 95.1835 16.3063 92.5289 17.4439 90.6329 19.3401L86.8407 23.1323 63.3293 0 34.5087 28.8205 57.641 52.3319 43.61 66.363C39.4386 70.1551 39.4386 76.9811 43.61 81.1524L50.0567 87.5992 42.8516 94.8043C42.4723 94.8043 42.4723 95.1835 42.0931 95.1835 39.8178 97.4588 39.8178 101.251 42.0931 103.905 44.7476 106.181 48.1606 106.181 50.8151 103.905 51.1943 103.526 51.1943 103.526 51.1943 103.147L58.3994 95.9419 64.8461 102.389C67.1214 104.664 69.776 105.422 72.4305 105.422 75.085 105.422 77.7395 104.285 80.0148 102.389L94.425 87.9784 117.937 111.111 146.757 82.6693ZM63.3293 13.2726 80.0148 29.9581 64.4669 45.5061 47.7813 28.8205 63.3293 13.2726ZM73.5681 95.9419C73.1889 96.3211 72.4305 96.3211 71.672 95.9419L50.4358 74.7057C49.6774 73.9473 49.6774 73.1889 50.4358 72.8097L97.0795 26.166C97.4588 25.7868 97.838 25.7868 98.2172 25.7868 98.2172 25.7868 98.5964 25.7868 98.9756 26.166L120.212 47.4021C120.591 47.7813 120.591 48.5398 120.212 48.9189L87.9784 81.5317 73.5681 95.9419ZM116.799 65.9837 133.485 82.6693 117.937 98.2172 101.251 81.5317 116.799 65.9837ZM31.0958 140.689C39.4386 144.861 48.5398 147.515 57.641 147.515L57.641 138.035C50.0567 138.035 42.4723 136.139 35.6464 132.347L31.0958 140.689ZM0 89.4952C0 98.5964 2.2753 107.698 6.44669 115.661L14.7894 111.489C11.3765 104.664 9.48043 97.0795 9.48043 89.4952L0 89.4952ZM37.5425 123.625C43.61 127.038 50.4358 129.313 57.641 129.313L57.641 119.832C52.3319 119.832 47.0229 118.316 42.4723 115.282L37.5425 123.625ZM27.6829 89.4952 18.2024 89.4952C18.2024 96.7004 20.0985 103.526 23.8907 109.594L31.8542 105.043C29.1998 100.113 27.6829 95.1835 27.6829 89.4952Z" transform="matrix(1.00024 0 0 1 189.776 736.99)"/><path d="M146.757 82.6693 123.245 59.1579C130.83 51.5735 130.83 45.1268 127.038 40.9555L105.422 19.3401C103.526 17.4439 100.872 16.3063 97.838 16.3063 95.1835 16.3063 92.5289 17.4439 90.6329 19.3401L86.8407 23.1323 63.3293 0 34.5087 28.8205 57.641 52.3319 43.61 66.363C39.4386 70.1551 39.4386 76.9811 43.61 81.1524L50.0567 87.5992 42.8516 94.8043C42.4723 94.8043 42.4723 95.1835 42.0931 95.1835 39.8178 97.4588 39.8178 101.251 42.0931 103.905 44.7476 106.181 48.1606 106.181 50.8151 103.905 51.1943 103.526 51.1943 103.526 51.1943 103.147L58.3994 95.9419 64.8461 102.389C67.1214 104.664 69.776 105.422 72.4305 105.422 75.085 105.422 77.7395 104.285 80.0148 102.389L94.425 87.9784 117.937 111.111 146.757 82.6693ZM63.3293 13.2726 80.0148 29.9581 64.4669 45.5061 47.7813 28.8205 63.3293 13.2726ZM73.5681 95.9419C73.1889 96.3211 72.4305 96.3211 71.672 95.9419L50.4358 74.7057C49.6774 73.9473 49.6774 73.1889 50.4358 72.8097L97.0795 26.166C97.4588 25.7868 97.838 25.7868 98.2172 25.7868 98.2172 25.7868 98.5964 25.7868 98.9756 26.166L120.212 47.4021C120.591 47.7813 120.591 48.5398 120.212 48.9189L87.9784 81.5317 73.5681 95.9419ZM116.799 65.9837 133.485 82.6693 117.937 98.2172 101.251 81.5317 116.799 65.9837ZM31.0958 140.689C39.4386 144.861 48.5398 147.515 57.641 147.515L57.641 138.035C50.0567 138.035 42.4723 136.139 35.6464 132.347L31.0958 140.689ZM0 89.4952C0 98.5964 2.2753 107.698 6.44669 115.661L14.7894 111.489C11.3765 104.664 9.48043 97.0795 9.48043 89.4952L0 89.4952ZM37.5425 123.625C43.61 127.038 50.4358 129.313 57.641 129.313L57.641 119.832C52.3319 119.832 47.0229 118.316 42.4723 115.282L37.5425 123.625ZM27.6829 89.4952 18.2024 89.4952C18.2024 96.7004 20.0985 103.526 23.8907 109.594L31.8542 105.043C29.1998 100.113 27.6829 95.1835 27.6829 89.4952Z" transform="matrix(1.00024 0 0 1 297.31 576.091)"/><path d="M146.757 82.6693 123.245 59.1579C130.83 51.5735 130.83 45.1268 127.038 40.9555L105.422 19.3401C103.526 17.4439 100.872 16.3063 97.838 16.3063 95.1835 16.3063 92.5289 17.4439 90.6329 19.3401L86.8407 23.1323 63.3293 0 34.5087 28.8205 57.641 52.3319 43.61 66.363C39.4386 70.1551 39.4386 76.9811 43.61 81.1524L50.0567 87.5992 42.8516 94.8043C42.4723 94.8043 42.4723 95.1835 42.0931 95.1835 39.8178 97.4588 39.8178 101.251 42.0931 103.905 44.7476 106.181 48.1606 106.181 50.8151 103.905 51.1943 103.526 51.1943 103.526 51.1943 103.147L58.3994 95.9419 64.8461 102.389C67.1214 104.664 69.776 105.422 72.4305 105.422 75.085 105.422 77.7395 104.285 80.0148 102.389L94.425 87.9784 117.937 111.111 146.757 82.6693ZM63.3293 13.2726 80.0148 29.9581 64.4669 45.5061 47.7813 28.8205 63.3293 13.2726ZM73.5681 95.9419C73.1889 96.3211 72.4305 96.3211 71.672 95.9419L50.4358 74.7057C49.6774 73.9473 49.6774 73.1889 50.4358 72.8097L97.0795 26.166C97.4588 25.7868 97.838 25.7868 98.2172 25.7868 98.2172 25.7868 98.5964 25.7868 98.9756 26.166L120.212 47.4021C120.591 47.7813 120.591 48.5398 120.212 48.9189L87.9784 81.5317 73.5681 95.9419ZM116.799 65.9837 133.485 82.6693 117.937 98.2172 101.251 81.5317 116.799 65.9837ZM31.0958 140.689C39.4386 144.861 48.5398 147.515 57.641 147.515L57.641 138.035C50.0567 138.035 42.4723 136.139 35.6464 132.347L31.0958 140.689ZM0 89.4952C0 98.5964 2.2753 107.698 6.44669 115.661L14.7894 111.489C11.3765 104.664 9.48043 97.0795 9.48043 89.4952L0 89.4952ZM37.5425 123.625C43.61 127.038 50.4358 129.313 57.641 129.313L57.641 119.832C52.3319 119.832 47.0229 118.316 42.4723 115.282L37.5425 123.625ZM27.6829 89.4952 18.2024 89.4952C18.2024 96.7004 20.0985 103.526 23.8907 109.594L31.8542 105.043C29.1998 100.113 27.6829 95.1835 27.6829 89.4952Z" transform="matrix(1.00024 0 0 1 31.793 663.311)"/><path d="M146.757 82.6693 123.245 59.1579C130.83 51.5735 130.83 45.1268 127.038 40.9555L105.422 19.3401C103.526 17.4439 100.872 16.3063 97.838 16.3063 95.1835 16.3063 92.5289 17.4439 90.6329 19.3401L86.8407 23.1323 63.3293 0 34.5087 28.8205 57.641 52.3319 43.61 66.363C39.4386 70.1551 39.4386 76.9811 43.61 81.1524L50.0567 87.5992 42.8516 94.8043C42.4723 94.8043 42.4723 95.1835 42.0931 95.1835 39.8178 97.4588 39.8178 101.251 42.0931 103.905 44.7476 106.181 48.1606 106.181 50.8151 103.905 51.1943 103.526 51.1943 103.526 51.1943 103.147L58.3994 95.9419 64.8461 102.389C67.1214 104.664 69.776 105.422 72.4305 105.422 75.085 105.422 77.7395 104.285 80.0148 102.389L94.425 87.9784 117.937 111.111 146.757 82.6693ZM63.3293 13.2726 80.0148 29.9581 64.4669 45.5061 47.7813 28.8205 63.3293 13.2726ZM73.5681 95.9419C73.1889 96.3211 72.4305 96.3211 71.672 95.9419L50.4358 74.7057C49.6774 73.9473 49.6774 73.1889 50.4358 72.8097L97.0795 26.166C97.4588 25.7868 97.838 25.7868 98.2172 25.7868 98.2172 25.7868 98.5964 25.7868 98.9756 26.166L120.212 47.4021C120.591 47.7813 120.591 48.5398 120.212 48.9189L87.9784 81.5317 73.5681 95.9419ZM116.799 65.9837 133.485 82.6693 117.937 98.2172 101.251 81.5317 116.799 65.9837ZM31.0958 140.689C39.4386 144.861 48.5398 147.515 57.641 147.515L57.641 138.035C50.0567 138.035 42.4723 136.139 35.6464 132.347L31.0958 140.689ZM0 89.4952C0 98.5964 2.2753 107.698 6.44669 115.661L14.7894 111.489C11.3765 104.664 9.48043 97.0795 9.48043 89.4952L0 89.4952ZM37.5425 123.625C43.61 127.038 50.4358 129.313 57.641 129.313L57.641 119.832C52.3319 119.832 47.0229 118.316 42.4723 115.282L37.5425 123.625ZM27.6829 89.4952 18.2024 89.4952C18.2024 96.7004 20.0985 103.526 23.8907 109.594L31.8542 105.043C29.1998 100.113 27.6829 95.1835 27.6829 89.4952Z" transform="matrix(1.00024 0 0 1 145.586 505.671)"/><path d="M48.5398 23.1323 43.61 23.1323 43.61 16.6856C43.61 7.58434 36.4049 0 26.9244 0 17.8232 0 10.6181 7.58434 10.6181 16.6856L10.6181 23.1323 5.68825 23.1323C2.65452 23.1323 0 25.7868 0 28.8205L0 58.7786C0 61.8124 2.65452 64.4669 5.68825 64.4669L48.5398 64.4669C51.5735 64.4669 54.228 61.8124 54.228 58.7786L54.228 28.8205C54.228 25.7868 51.5735 23.1323 48.5398 23.1323ZM15.1687 16.6856C15.1687 9.85964 20.4777 4.55061 26.9244 4.55061 33.7504 4.55061 39.0593 9.85964 39.0593 16.6856L39.0593 23.1323 15.1687 23.1323 15.1687 16.6856ZM49.6774 58.7786C49.6774 59.537 49.2982 59.9163 48.5398 59.9163L5.68825 59.9163C4.92982 59.9163 4.55061 59.537 4.55061 58.7786L4.55061 28.8205C4.55061 28.062 4.92982 27.6829 5.68825 27.6829L48.5398 27.6829C49.2982 27.6829 49.6774 28.062 49.6774 28.8205L49.6774 58.7786Z" fill="#BEBEBE" transform="matrix(1.00024 0 0 1 2866.42 1087.95)"/><path d="M5.68825 0C2.65452 0 0 2.65452 0 5.68825 0 8.34278 1.51687 10.2389 3.41295 10.9973L3.41295 19.7193 7.96356 19.7193 7.96356 10.9973C10.2389 10.2389 11.7557 8.34278 11.7557 5.68825 11.7557 2.65452 9.1012 0 5.68825 0Z" fill="#BEBEBE" transform="matrix(1.00024 0 0 1 2887.66 1121.9)"/><path d="M48.5398 23.1323 43.61 23.1323 43.61 16.6856C43.61 7.58434 36.4049 0 26.9244 0 17.8232 0 10.6181 7.58434 10.6181 16.6856L10.6181 23.1323 5.68825 23.1323C2.65452 23.1323 0 25.7868 0 28.8205L0 58.7786C0 61.8124 2.65452 64.4669 5.68825 64.4669L48.5398 64.4669C51.5735 64.4669 54.228 61.8124 54.228 58.7786L54.228 28.8205C54.228 25.7868 51.5735 23.1323 48.5398 23.1323ZM15.1687 16.6856C15.1687 9.85964 20.4777 4.55061 26.9244 4.55061 33.7504 4.55061 39.0593 9.85964 39.0593 16.6856L39.0593 23.1323 15.1687 23.1323 15.1687 16.6856ZM49.6774 58.7786C49.6774 59.537 49.2982 59.9163 48.5398 59.9163L5.68825 59.9163C4.92982 59.9163 4.55061 59.537 4.55061 58.7786L4.55061 28.8205C4.55061 28.062 4.92982 27.6829 5.68825 27.6829L48.5398 27.6829C49.2982 27.6829 49.6774 28.062 49.6774 28.8205L49.6774 58.7786Z" fill="#BEBEBE" transform="matrix(1.00024 0 0 1 3323.6 1053)"/><path d="M5.68825 0C2.65452 0 0 2.65452 0 5.68825 0 8.34278 1.51687 10.2389 3.41295 10.9973L3.41295 19.7193 7.96356 19.7193 7.96356 10.9973C10.2389 10.2389 11.7557 8.34278 11.7557 5.68825 11.7557 2.65452 9.1012 0 5.68825 0Z" fill="#BEBEBE" transform="matrix(1.00024 0 0 1 3344.84 1086.94)"/><path d="M48.5398 23.1323 43.61 23.1323 43.61 16.6856C43.61 7.58434 36.4049 0 26.9244 0 17.8232 0 10.6181 7.58434 10.6181 16.6856L10.6181 23.1323 5.68825 23.1323C2.65452 23.1323 0 25.7868 0 28.8205L0 58.7786C0 61.8124 2.65452 64.4669 5.68825 64.4669L48.5398 64.4669C51.5735 64.4669 54.228 61.8124 54.228 58.7786L54.228 28.8205C54.228 25.7868 51.5735 23.1323 48.5398 23.1323ZM15.1687 16.6856C15.1687 9.85964 20.4777 4.55061 26.9244 4.55061 33.7504 4.55061 39.0593 9.85964 39.0593 16.6856L39.0593 23.1323 15.1687 23.1323 15.1687 16.6856ZM49.6774 58.7786C49.6774 59.537 49.2982 59.9163 48.5398 59.9163L5.68825 59.9163C4.92982 59.9163 4.55061 59.537 4.55061 58.7786L4.55061 28.8205C4.55061 28.062 4.92982 27.6829 5.68825 27.6829L48.5398 27.6829C49.2982 27.6829 49.6774 28.062 49.6774 28.8205L49.6774 58.7786Z" fill="#BEBEBE" transform="matrix(1.00024 0 0 1 1877.9 908.968)"/><path d="M5.68825 0C2.65452 0 0 2.65452 0 5.68825 0 8.34278 1.51687 10.2389 3.41295 10.9973L3.41295 19.7193 7.96356 19.7193 7.96356 10.9973C10.2389 10.2389 11.7557 8.34278 11.7557 5.68825 11.7557 2.65452 9.1012 0 5.68825 0Z" fill="#BEBEBE" transform="matrix(1.00024 0 0 1 1899.14 942.91)"/><path d="M48.5398 23.1323 43.61 23.1323 43.61 16.6856C43.61 7.58434 36.4049 0 26.9244 0 17.8232 0 10.6181 7.58434 10.6181 16.6856L10.6181 23.1323 5.68825 23.1323C2.65452 23.1323 0 25.7868 0 28.8205L0 58.7786C0 61.8124 2.65452 64.4669 5.68825 64.4669L48.5398 64.4669C51.5735 64.4669 54.228 61.8124 54.228 58.7786L54.228 28.8205C54.228 25.7868 51.5735 23.1323 48.5398 23.1323ZM15.1687 16.6856C15.1687 9.85964 20.4777 4.55061 26.9244 4.55061 33.7504 4.55061 39.0593 9.85964 39.0593 16.6856L39.0593 23.1323 15.1687 23.1323 15.1687 16.6856ZM49.6774 58.7786C49.6774 59.537 49.2982 59.9163 48.5398 59.9163L5.68825 59.9163C4.92982 59.9163 4.55061 59.537 4.55061 58.7786L4.55061 28.8205C4.55061 28.062 4.92982 27.6829 5.68825 27.6829L48.5398 27.6829C49.2982 27.6829 49.6774 28.062 49.6774 28.8205L49.6774 58.7786Z" fill="#BEBEBE" transform="matrix(1.00024 0 0 1 1949.44 1336.27)"/><path d="M5.68825 0C2.65452 0 0 2.65452 0 5.68825 0 8.34278 1.51687 10.2389 3.41295 10.9973L3.41295 19.7193 7.96356 19.7193 7.96356 10.9973C10.2389 10.2389 11.7557 8.34278 11.7557 5.68825 11.7557 2.65452 9.1012 0 5.68825 0Z" fill="#BEBEBE" transform="matrix(1.00024 0 0 1 1970.67 1370.21)"/><path d="M48.5398 23.1323 43.61 23.1323 43.61 16.6856C43.61 7.58434 36.4049 0 26.9244 0 17.8232 0 10.6181 7.58434 10.6181 16.6856L10.6181 23.1323 5.68825 23.1323C2.65452 23.1323 0 25.7868 0 28.8205L0 58.7786C0 61.8124 2.65452 64.4669 5.68825 64.4669L48.5398 64.4669C51.5735 64.4669 54.228 61.8124 54.228 58.7786L54.228 28.8205C54.228 25.7868 51.5735 23.1323 48.5398 23.1323ZM15.1687 16.6856C15.1687 9.85964 20.4777 4.55061 26.9244 4.55061 33.7504 4.55061 39.0593 9.85964 39.0593 16.6856L39.0593 23.1323 15.1687 23.1323 15.1687 16.6856ZM49.6774 58.7786C49.6774 59.537 49.2982 59.9163 48.5398 59.9163L5.68825 59.9163C4.92982 59.9163 4.55061 59.537 4.55061 58.7786L4.55061 28.8205C4.55061 28.062 4.92982 27.6829 5.68825 27.6829L48.5398 27.6829C49.2982 27.6829 49.6774 28.062 49.6774 28.8205L49.6774 58.7786Z" fill="#BEBEBE" transform="matrix(1.00024 0 0 1 2866.42 1277.19)"/><path d="M5.68825 0C2.65452 0 0 2.65452 0 5.68825 0 8.34278 1.51687 10.2389 3.41295 10.9973L3.41295 19.7193 7.96356 19.7193 7.96356 10.9973C10.2389 10.2389 11.7557 8.34278 11.7557 5.68825 11.7557 2.65452 9.1012 0 5.68825 0Z" fill="#BEBEBE" transform="matrix(1.00024 0 0 1 2887.66 1311.13)"/><path d="M48.5398 23.1323 43.61 23.1323 43.61 16.6856C43.61 7.58434 36.4049 0 26.9244 0 17.8232 0 10.6181 7.58434 10.6181 16.6856L10.6181 23.1323 5.68825 23.1323C2.65452 23.1323 0 25.7868 0 28.8205L0 58.7786C0 61.8124 2.65452 64.4669 5.68825 64.4669L48.5398 64.4669C51.5735 64.4669 54.228 61.8124 54.228 58.7786L54.228 28.8205C54.228 25.7868 51.5735 23.1323 48.5398 23.1323ZM15.1687 16.6856C15.1687 9.85964 20.4777 4.55061 26.9244 4.55061 33.7504 4.55061 39.0593 9.85964 39.0593 16.6856L39.0593 23.1323 15.1687 23.1323 15.1687 16.6856ZM49.6774 58.7786C49.6774 59.537 49.2982 59.9163 48.5398 59.9163L5.68825 59.9163C4.92982 59.9163 4.55061 59.537 4.55061 58.7786L4.55061 28.8205C4.55061 28.062 4.92982 27.6829 5.68825 27.6829L48.5398 27.6829C49.2982 27.6829 49.6774 28.062 49.6774 28.8205L49.6774 58.7786Z" fill="#BEBEBE" transform="matrix(1.00024 0 0 1 3322.23 1277.95)"/><path d="M5.68825 0C2.65452 0 0 2.65452 0 5.68825 0 8.34278 1.51687 10.2389 3.41295 10.9973L3.41295 19.7193 7.96356 19.7193 7.96356 10.9973C10.2389 10.2389 11.7557 8.34278 11.7557 5.68825 11.7557 2.65452 9.1012 0 5.68825 0Z" fill="#BEBEBE" transform="matrix(1.00024 0 0 1 3343.48 1311.88)"/><path d="M48.5398 23.1323 43.61 23.1323 43.61 16.6856C43.61 7.58434 36.4049 0 26.9244 0 17.8232 0 10.6181 7.58434 10.6181 16.6856L10.6181 23.1323 5.68825 23.1323C2.65452 23.1323 0 25.7868 0 28.8205L0 58.7786C0 61.8124 2.65452 64.4669 5.68825 64.4669L48.5398 64.4669C51.5735 64.4669 54.228 61.8124 54.228 58.7786L54.228 28.8205C54.228 25.7868 51.5735 23.1323 48.5398 23.1323ZM15.1687 16.6856C15.1687 9.85964 20.4777 4.55061 26.9244 4.55061 33.7504 4.55061 39.0593 9.85964 39.0593 16.6856L39.0593 23.1323 15.1687 23.1323 15.1687 16.6856ZM49.6774 58.7786C49.6774 59.537 49.2982 59.9163 48.5398 59.9163L5.68825 59.9163C4.92982 59.9163 4.55061 59.537 4.55061 58.7786L4.55061 28.8205C4.55061 28.062 4.92982 27.6829 5.68825 27.6829L48.5398 27.6829C49.2982 27.6829 49.6774 28.062 49.6774 28.8205L49.6774 58.7786Z" fill="#BEBEBE" transform="matrix(1.00024 0 0 1 1084.34 1336.27)"/><path d="M5.68825 0C2.65452 0 0 2.65452 0 5.68825 0 8.34278 1.51687 10.2389 3.41295 10.9973L3.41295 19.7193 7.96356 19.7193 7.96356 10.9973C10.2389 10.2389 11.7557 8.34278 11.7557 5.68825 11.7557 2.65452 9.1012 0 5.68825 0Z" fill="#BEBEBE" transform="matrix(1.00024 0 0 1 1105.58 1370.21)"/><path d="M41.7138 0 163.063 0C194.538 0 219.945 25.4075 219.945 56.8825L219.945 392.869C219.945 420.173 197.951 442.167 170.648 442.167L159.271 442.167" stroke="#5A5A5A" stroke-width="7.58434" fill="none" transform="matrix(1.00024 0 0 1 4032.38 846.515)"/><path d="M0 0 41.7138 10.6181 41.7138-10.6181 0 0" stroke="#5A5A5A" stroke-width="3.79217" stroke-linecap="round" fill="#5A5A5A" transform="matrix(1.00024 0 0 1 4032.38 846.515)"/><path d="M117.557 442.167 159.271 452.785 159.271 431.549 117.557 442.167" stroke="#5A5A5A" stroke-width="3.79217" stroke-linecap="round" fill="#5A5A5A" transform="matrix(1.00024 0 0 1 4032.38 846.515)"/><path d="M41.7138 0 163.063 0C194.538 0 219.945 25.4075 219.945 56.8825L219.945 171.786C219.945 199.089 197.951 221.083 170.648 221.083L159.271 221.083" stroke="#5A5A5A" stroke-width="7.58434" fill="none" transform="matrix(1.00024 0 0 1 4032.38 1067.6)"/><path d="M0 0 41.7138 10.6181 41.7138-10.6181 0 0" stroke="#5A5A5A" stroke-width="3.79217" stroke-linecap="round" fill="#5A5A5A" transform="matrix(1.00024 0 0 1 4032.38 1067.6)"/><path d="M117.557 221.083 159.271 231.701 159.271 210.466 117.557 221.083" stroke="#5A5A5A" stroke-width="3.79217" stroke-linecap="round" fill="#5A5A5A" transform="matrix(1.00024 0 0 1 4032.38 1067.6)"/><path d="M2.01613-7.78866 103.968 165.38 94.1632 171.152-7.78866-2.01613ZM110.887 154.704 125.043 212.387 81.4722 172.021Z" fill="#FF6E59" transform="matrix(1 0 0 -1.0001 2666.01 1099.74)"/></g></g></g></g></g></svg>